<svg xmlns="http://www.w3.org/2000/svg" width="1750" height="1000" viewBox="0 0 1750 1000">
<rect x="0" y="0" width="1750" height="1000" fill="white"/>
<style>@font-face { font-family: "Fira Sans"; src: url("../fonts/FiraSans-Regular.ttf"); font-weight: 400; } @font-face { font-family: "Fira Sans"; src: url("../fonts/FiraSans-Bold.ttf"); font-weight: 700; }</style>
<defs><linearGradient id="talkClosingPurposeGrad" x1="0" y1="0" x2="1" y2="1"><stop offset="0%" stop-color="#116099"/><stop offset="100%" stop-color="#004473"/></linearGradient></defs>
<line x1="1015.0" y1="182.0" x2="1248.3" y2="278.7" stroke="#A9B3C4" stroke-width="2.5"/>
<line x1="1248.3" y1="278.7" x2="1345.0" y2="512.0" stroke="#A9B3C4" stroke-width="2.5"/>
<line x1="1345.0" y1="512.0" x2="1248.3" y2="745.3" stroke="#A9B3C4" stroke-width="2.5"/>
<line x1="1248.3" y1="745.3" x2="1015.0" y2="842.0" stroke="#A9B3C4" stroke-width="2.5"/>
<line x1="1015.0" y1="842.0" x2="781.7" y2="745.3" stroke="#A9B3C4" stroke-width="2.5"/>
<line x1="781.7" y1="745.3" x2="685.0" y2="512.0" stroke="#A9B3C4" stroke-width="2.5"/>
<line x1="685.0" y1="512.0" x2="781.7" y2="278.7" stroke="#A9B3C4" stroke-width="2.5"/>
<line x1="781.7" y1="278.7" x2="1015.0" y2="182.0" stroke="#A9B3C4" stroke-width="2.5"/>
<line x1="1015" y1="512" x2="1015.0" y2="182.0" stroke="#A9B3C4" stroke-width="1.6" opacity="0.55"/>
<line x1="1015" y1="512" x2="1248.3" y2="278.7" stroke="#A9B3C4" stroke-width="1.6" opacity="0.55"/>
<line x1="1015" y1="512" x2="1345.0" y2="512.0" stroke="#A9B3C4" stroke-width="1.6" opacity="0.55"/>
<line x1="1015" y1="512" x2="1248.3" y2="745.3" stroke="#A9B3C4" stroke-width="1.6" opacity="0.55"/>
<line x1="1015" y1="512" x2="1015.0" y2="842.0" stroke="#A9B3C4" stroke-width="1.6" opacity="0.55"/>
<line x1="1015" y1="512" x2="781.7" y2="745.3" stroke="#A9B3C4" stroke-width="1.6" opacity="0.55"/>
<line x1="1015" y1="512" x2="685.0" y2="512.0" stroke="#A9B3C4" stroke-width="1.6" opacity="0.55"/>
<line x1="1015" y1="512" x2="781.7" y2="278.7" stroke="#A9B3C4" stroke-width="1.6" opacity="0.55"/>
<circle cx="1015.0" cy="182.0" r="72" fill="#E6ECF1" stroke="#004473" stroke-width="4"/>
<g transform="translate(1015.0,182.0) scale(0.48)"><circle cx="0" cy="0" r="72" fill="none" stroke="#004473" stroke-width="6" stroke-dasharray="4 14" stroke-linecap="round"/><circle cx="0" cy="0" r="24" fill="#004473"/></g>
<text x="1015.0" y="80.0" text-anchor="middle" font-family="Fira Sans" font-weight="700" font-size="21" fill="#161B2E">Encapsulation</text>
<circle cx="1248.3" cy="278.7" r="72" fill="url(#talkClosingPurposeGrad)"/>
<g transform="translate(1248.3,278.7) scale(1.0)"><path d="M -13 -16 h 19 l 7 7 v 25 h -26 z" fill="none" stroke="#FFFFFF" stroke-width="2" stroke-linejoin="round"/><line x1="-8" y1="-6" x2="8" y2="-6" stroke="#FFFFFF" stroke-width="1.6" stroke-linecap="round"/><line x1="-8" y1="-1" x2="8" y2="-1" stroke="#FFFFFF" stroke-width="1.6" stroke-linecap="round"/><path d="M -8 4 l 3.5 3.5 l 7 -7" fill="none" stroke="#FFFFFF" stroke-width="2" stroke-linecap="round" stroke-linejoin="round"/></g>
<text x="1317.6" y="205.4" text-anchor="start" font-family="Fira Sans" font-weight="700" font-size="21" fill="#161B2E">FAIR &amp; Citable</text>
<circle cx="1345.0" cy="512.0" r="72" fill="#E6F6F4" stroke="#0E9488" stroke-width="4"/>
<g transform="translate(1345.0,512.0) scale(0.48)"><line x1="0" y1="6" x2="-56" y2="-42" stroke="#0E9488" stroke-width="6" stroke-linecap="round"/><line x1="0" y1="6" x2="56" y2="-42" stroke="#0E9488" stroke-width="6" stroke-linecap="round"/><circle cx="-56" cy="-42" r="15" fill="white" stroke="#0E9488" stroke-width="6"/><circle cx="56" cy="-42" r="15" fill="white" stroke="#0E9488" stroke-width="6"/><circle cx="0" cy="6" r="24" fill="#0E9488"/></g>
<text x="1443.0" y="518.0" text-anchor="start" font-family="Fira Sans" font-weight="700" font-size="21" fill="#161B2E">Semantic Metadata</text>
<circle cx="1248.3" cy="745.3" r="72" fill="url(#talkClosingPurposeGrad)"/>
<g transform="translate(1248.3,745.3) scale(1.0)"><line x1="0" y1="-18" x2="-18" y2="12" stroke="#FFFFFF" stroke-width="1.6"/><line x1="0" y1="-18" x2="18" y2="12" stroke="#FFFFFF" stroke-width="1.6"/><line x1="-18" y1="12" x2="18" y2="12" stroke="#FFFFFF" stroke-width="1.6" stroke-dasharray="1 3" stroke-linecap="round"/><circle cx="0" cy="-18" r="4.3" fill="#FFFFFF"/><circle cx="-18" cy="12" r="4.3" fill="#FFFFFF"/><circle cx="18" cy="12" r="4.3" fill="#FFFFFF"/></g>
<text x="1317.6" y="822.6" text-anchor="start" font-family="Fira Sans" font-weight="700" font-size="21" fill="#161B2E">Sem. Queryable</text>
<circle cx="1015.0" cy="842.0" r="72" fill="#FCF1E1" stroke="#C2790C" stroke-width="4"/>
<g transform="translate(1015.0,842.0) scale(0.48)"><line x1="0" y1="18" x2="-88" y2="-38" stroke="#C2790C" stroke-width="6" stroke-linecap="round"/><line x1="0" y1="18" x2="88" y2="-38" stroke="#C2790C" stroke-width="6" stroke-linecap="round"/><circle cx="-88" cy="-38" r="18" fill="white" stroke="#C2790C" stroke-width="6"/><circle cx="88" cy="-38" r="18" fill="white" stroke="#C2790C" stroke-width="6"/><circle cx="0" cy="18" r="24" fill="#C2790C"/></g>
<text x="1015.0" y="948.0" text-anchor="middle" font-family="Fira Sans" font-weight="700" font-size="21" fill="#161B2E">Linking to Hubs</text>
<circle cx="781.7" cy="745.3" r="72" fill="url(#talkClosingPurposeGrad)"/>
<g transform="translate(781.7,745.3) scale(1.0)"><line x1="0" y1="0" x2="0" y2="-20" stroke="#FFFFFF" stroke-width="1.6"/><line x1="0" y1="0" x2="20" y2="0" stroke="#FFFFFF" stroke-width="1.6"/><line x1="0" y1="0" x2="0" y2="20" stroke="#FFFFFF" stroke-width="1.6"/><line x1="0" y1="0" x2="-20" y2="0" stroke="#FFFFFF" stroke-width="1.6"/><circle cx="0" cy="-20" r="3.5" fill="#FFFFFF"/><circle cx="20" cy="0" r="3.5" fill="#FFFFFF"/><circle cx="0" cy="20" r="3.5" fill="#FFFFFF"/><circle cx="-20" cy="0" r="3.5" fill="#FFFFFF"/><circle cx="0" cy="0" r="4.7" fill="#FFFFFF"/></g>
<text x="712.4" y="822.6" text-anchor="end" font-family="Fira Sans" font-weight="700" font-size="21" fill="#161B2E">Interoperable</text>
<circle cx="685.0" cy="512.0" r="72" fill="#F3E9FC" stroke="#8034C9" stroke-width="4"/>
<g transform="translate(685.0,512.0) scale(0.48)"><line x1="0" y1="-62" x2="58" y2="-18" stroke="#8034C9" stroke-width="4.5" stroke-linecap="round" opacity="0.75"/><line x1="58" y1="-18" x2="36" y2="56" stroke="#8034C9" stroke-width="4.5" stroke-linecap="round" opacity="0.75"/><line x1="36" y1="56" x2="-36" y2="56" stroke="#8034C9" stroke-width="4.5" stroke-linecap="round" opacity="0.75"/><line x1="-36" y1="56" x2="-58" y2="-18" stroke="#8034C9" stroke-width="4.5" stroke-linecap="round" opacity="0.75"/><line x1="-58" y1="-18" x2="0" y2="-62" stroke="#8034C9" stroke-width="4.5" stroke-linecap="round" opacity="0.75"/><line x1="0" y1="-62" x2="36" y2="56" stroke="#8034C9" stroke-width="4.5" stroke-linecap="round" opacity="0.75"/><line x1="58" y1="-18" x2="-36" y2="56" stroke="#8034C9" stroke-width="4.5" stroke-linecap="round" opacity="0.75"/><circle cx="0" cy="-62" r="15" fill="#8034C9"/><circle cx="58" cy="-18" r="15" fill="#8034C9"/><circle cx="36" cy="56" r="15" fill="#8034C9"/><circle cx="-36" cy="56" r="15" fill="#8034C9"/><circle cx="-58" cy="-18" r="15" fill="#8034C9"/></g>
<text x="587.0" y="518.0" text-anchor="end" font-family="Fira Sans" font-weight="700" font-size="21" fill="#161B2E">Federated KG</text>
<circle cx="781.7" cy="278.7" r="72" fill="url(#talkClosingPurposeGrad)"/>
<g transform="translate(781.7,278.7) scale(1.0)"><line x1="-15" y1="-11" x2="16" y2="-8" stroke="#FFFFFF" stroke-width="1.4"/><line x1="16" y1="-8" x2="-2" y2="17" stroke="#FFFFFF" stroke-width="1.4"/><line x1="-2" y1="17" x2="-15" y2="-11" stroke="#FFFFFF" stroke-width="1.4"/><circle cx="-15" cy="-11" r="6.2" fill="none" stroke="#FFFFFF" stroke-width="1.4"/><circle cx="-15" cy="-11" r="2" fill="#FFFFFF"/><circle cx="16" cy="-8" r="6.2" fill="none" stroke="#FFFFFF" stroke-width="1.4"/><circle cx="16" cy="-8" r="2" fill="#FFFFFF"/><circle cx="-2" cy="17" r="6.2" fill="none" stroke="#FFFFFF" stroke-width="1.4"/><circle cx="-2" cy="17" r="2" fill="#FFFFFF"/></g>
<text x="712.4" y="205.4" text-anchor="end" font-family="Fira Sans" font-weight="700" font-size="21" fill="#161B2E">Integrable</text>
<circle cx="1015" cy="512" r="118.0" fill="#A5BDCE" stroke="#004473" stroke-width="5"/>
<circle cx="1015" cy="512" r="64.5" fill="#004473" stroke="#002F50" stroke-width="5"/>
<text x="1015" y="504.2" text-anchor="middle" font-family="Fira Sans" font-weight="700" font-size="26" fill="white" letter-spacing="2">I0I0</text>
<text x="1015" y="538.0" text-anchor="middle" font-family="Fira Sans" font-weight="700" font-size="26" fill="white" letter-spacing="2">0I0I</text>
<line x1="200" y1="860" x2="1015.0" y2="842.0" stroke="#116099" stroke-width="2.5" stroke-dasharray="2 8" stroke-linecap="round"/>
<line x1="150" y1="545" x2="781.7" y2="745.3" stroke="#116099" stroke-width="2.5" stroke-dasharray="2 8" stroke-linecap="round"/>
<line x1="200" y1="290" x2="781.7" y2="278.7" stroke="#116099" stroke-width="2.5" stroke-dasharray="2 8" stroke-linecap="round"/>
<circle cx="200" cy="860" r="58" fill="#004473"/>
<text x="200" y="786" text-anchor="middle" font-family="Fira Sans" font-weight="700" font-size="21" fill="#161B2E">OpenStreetMap</text>
<circle cx="150" cy="545" r="58" fill="#004473"/>
<text x="150" y="471" text-anchor="middle" font-family="Fira Sans" font-weight="700" font-size="21" fill="#161B2E">Wikidata</text>
<circle cx="200" cy="290" r="58" fill="#004473"/>
<text x="200" y="216" text-anchor="middle" font-family="Fira Sans" font-weight="700" font-size="21" fill="#161B2E">NFDI4Objects</text>
</svg>