<svg xmlns="http://www.w3.org/2000/svg" width="3840" height="1084" viewBox="0 0 3840 1084">
<style>@font-face { font-family: "Fira Sans"; src: url("../fonts/FiraSans-Regular.ttf"); font-weight: 400; } @font-face { font-family: "Fira Sans"; src: url("../fonts/FiraSans-Bold.ttf"); font-weight: 700; }</style>
<defs>
<linearGradient id="flow" gradientUnits="userSpaceOnUse" x1="835.0" y1="306" x2="3005.0" y2="306"><stop offset="0%" stop-color="#004473"/><stop offset="33%" stop-color="#0E9488"/><stop offset="67%" stop-color="#C2790C"/><stop offset="100%" stop-color="#8034C9"/></linearGradient>
</defs>
<line x1="835.0" y1="306" x2="3005.0" y2="306" stroke="url(#flow)" stroke-width="10" stroke-linecap="round"/>
<path d="M 1064.0,284 L 1116.0,306 L 1064.0,328" fill="none" stroke="white" stroke-width="12" stroke-linejoin="round" stroke-linecap="round"/>
<path d="M 1894.0,284 L 1946.0,306 L 1894.0,328" fill="none" stroke="white" stroke-width="12" stroke-linejoin="round" stroke-linecap="round"/>
<path d="M 2724.0,284 L 2776.0,306 L 2724.0,328" fill="none" stroke="white" stroke-width="12" stroke-linejoin="round" stroke-linecap="round"/>
<circle cx="675.0" cy="306" r="150" fill="#E6ECF1" stroke="#004473" stroke-width="7"/><g transform="translate(675.0,306)"><circle cx="0" cy="0" r="72" fill="none" stroke="#004473" stroke-width="6" stroke-dasharray="4 14" stroke-linecap="round"/><circle cx="0" cy="0" r="24" fill="#004473"/></g><rect x="499.0" y="130" width="132" height="132" rx="26" fill="#004473"/><text x="565.0" y="236.0" text-anchor="middle" font-family="Fira Sans" font-weight="700" font-size="104" fill="white">1</text>
<text x="675.0" y="606" text-anchor="middle" font-family="Fira Sans" font-weight="700" font-size="60" fill="#161B2E">FDO</text><text x="675.0" y="686" text-anchor="middle" font-family="Fira Sans" font-weight="700" font-size="60" fill="#161B2E">Encapsulation</text>
<text x="675.0" y="812" text-anchor="middle" font-family="Fira Sans" font-weight="400" font-size="38" fill="#5B6478">Persistent identifier,</text>
<text x="675.0" y="866" text-anchor="middle" font-family="Fira Sans" font-weight="400" font-size="38" fill="#5B6478">structured metadata &amp;</text>
<text x="675.0" y="920" text-anchor="middle" font-family="Fira Sans" font-weight="400" font-size="38" fill="#5B6478">provenance</text>
<circle cx="1505.0" cy="306" r="150" fill="#E6F6F4" stroke="#0E9488" stroke-width="7"/><g transform="translate(1505.0,306)"><line x1="0" y1="6" x2="-56" y2="-42" stroke="#0E9488" stroke-width="6" stroke-linecap="round"/><line x1="0" y1="6" x2="56" y2="-42" stroke="#0E9488" stroke-width="6" stroke-linecap="round"/><circle cx="-56" cy="-42" r="15" fill="white" stroke="#0E9488" stroke-width="6"/><circle cx="56" cy="-42" r="15" fill="white" stroke="#0E9488" stroke-width="6"/><circle cx="0" cy="6" r="24" fill="#0E9488"/></g><rect x="1329.0" y="130" width="132" height="132" rx="26" fill="#0E9488"/><text x="1395.0" y="236.0" text-anchor="middle" font-family="Fira Sans" font-weight="700" font-size="104" fill="white">2</text>
<text x="1505.0" y="606" text-anchor="middle" font-family="Fira Sans" font-weight="700" font-size="60" fill="#161B2E">Semantic Metadata</text><text x="1505.0" y="686" text-anchor="middle" font-family="Fira Sans" font-weight="700" font-size="60" fill="#161B2E">&amp; Paradata Modelling</text>
<text x="1505.0" y="812" text-anchor="middle" font-family="Fira Sans" font-weight="400" font-size="38" fill="#5B6478">Acquisition, spatial</text>
<text x="1505.0" y="866" text-anchor="middle" font-family="Fira Sans" font-weight="400" font-size="38" fill="#5B6478">anchoring &amp; CIDOC CRM</text>
<text x="1505.0" y="920" text-anchor="middle" font-family="Fira Sans" font-weight="400" font-size="38" fill="#5B6478">alignment</text>
<circle cx="2335.0" cy="306" r="150" fill="#FCF1E1" stroke="#C2790C" stroke-width="7"/><g transform="translate(2335.0,306)"><line x1="0" y1="18" x2="-88" y2="-38" stroke="#C2790C" stroke-width="6" stroke-linecap="round"/><line x1="0" y1="18" x2="88" y2="-38" stroke="#C2790C" stroke-width="6" stroke-linecap="round"/><circle cx="-88" cy="-38" r="18" fill="white" stroke="#C2790C" stroke-width="6"/><circle cx="88" cy="-38" r="18" fill="white" stroke="#C2790C" stroke-width="6"/><circle cx="0" cy="18" r="24" fill="#C2790C"/></g><rect x="2159.0" y="130" width="132" height="132" rx="26" fill="#C2790C"/><text x="2225.0" y="236.0" text-anchor="middle" font-family="Fira Sans" font-weight="700" font-size="104" fill="white">3</text>
<text x="2335.0" y="606" text-anchor="middle" font-family="Fira Sans" font-weight="700" font-size="60" fill="#161B2E">Linking to</text><text x="2335.0" y="686" text-anchor="middle" font-family="Fira Sans" font-weight="700" font-size="60" fill="#161B2E">Community Hubs</text>
<text x="2335.0" y="812" text-anchor="middle" font-family="Fira Sans" font-weight="400" font-size="38" fill="#5B6478">Cross-referenced with</text>
<text x="2335.0" y="866" text-anchor="middle" font-family="Fira Sans" font-weight="400" font-size="38" fill="#5B6478">Wikidata &amp; OpenStreetMap</text>
<circle cx="3165.0" cy="306" r="150" fill="#F3E9FC" stroke="#8034C9" stroke-width="7"/><g transform="translate(3165.0,306)"><line x1="0" y1="-62" x2="58" y2="-18" stroke="#8034C9" stroke-width="4.5" stroke-linecap="round" opacity="0.75"/><line x1="58" y1="-18" x2="36" y2="56" stroke="#8034C9" stroke-width="4.5" stroke-linecap="round" opacity="0.75"/><line x1="36" y1="56" x2="-36" y2="56" stroke="#8034C9" stroke-width="4.5" stroke-linecap="round" opacity="0.75"/><line x1="-36" y1="56" x2="-58" y2="-18" stroke="#8034C9" stroke-width="4.5" stroke-linecap="round" opacity="0.75"/><line x1="-58" y1="-18" x2="0" y2="-62" stroke="#8034C9" stroke-width="4.5" stroke-linecap="round" opacity="0.75"/><line x1="0" y1="-62" x2="36" y2="56" stroke="#8034C9" stroke-width="4.5" stroke-linecap="round" opacity="0.75"/><line x1="58" y1="-18" x2="-36" y2="56" stroke="#8034C9" stroke-width="4.5" stroke-linecap="round" opacity="0.75"/><circle cx="0" cy="-62" r="15" fill="#8034C9"/><circle cx="58" cy="-18" r="15" fill="#8034C9"/><circle cx="36" cy="56" r="15" fill="#8034C9"/><circle cx="-36" cy="56" r="15" fill="#8034C9"/><circle cx="-58" cy="-18" r="15" fill="#8034C9"/></g><rect x="2989.0" y="130" width="132" height="132" rx="26" fill="#8034C9"/><text x="3055.0" y="236.0" text-anchor="middle" font-family="Fira Sans" font-weight="700" font-size="104" fill="white">4</text>
<text x="3165.0" y="606" text-anchor="middle" font-family="Fira Sans" font-weight="700" font-size="60" fill="#161B2E">Federated Knowledge</text><text x="3165.0" y="686" text-anchor="middle" font-family="Fira Sans" font-weight="700" font-size="60" fill="#161B2E">Graph Integration</text>
<text x="3165.0" y="812" text-anchor="middle" font-family="Fira Sans" font-weight="400" font-size="38" fill="#5B6478">RDF joins distributed</text>
<text x="3165.0" y="866" text-anchor="middle" font-family="Fira Sans" font-weight="400" font-size="38" fill="#5B6478">research infrastructures</text>
</svg>